{
  "accessors": [
    {
      "bufferView": 2,
      "componentType": 5126,
      "count": 218,
      "max": [
        -85.445556640625,
        -5.100876808166504,
        2499.591552734375
      ],
      "min": [
        -1602.304443359375,
        -5.100966930389404,
        -6.0999998822808266e-05
      ],
      "type": "VEC3"
    },
    {
      "bufferView": 2,
      "byteOffset": 2616,
      "componentType": 5126,
      "count": 218,
      "max": [
        0.0,
        1.0,
        0.0
      ],
      "min": [
        0.0,
        1.0,
        0.0
      ],
      "type": "VEC3"
    },
    {
      "bufferView": 1,
      "componentType": 5126,
      "count": 218,
      "max": [
        1.0,
        1.0
      ],
      "min": [
        0.0,
        0.0
      ],
      "type": "VEC2"
    },
    {
      "bufferView": 0,
      "componentType": 5125,
      "count": 963,
      "type": "SCALAR"
    },
    {
      "bufferView": 2,
      "byteOffset": 5232,
      "componentType": 5126,
      "count": 11880,
      "max": [
        1426.241943359375,
        1509.5430908203125,
        2499.591552734375
      ],
      "min": [
        -1602.304443359375,
        -1519.7451171875,
        -6.0999998822808266e-05
      ],
      "type": "VEC3"
    },
    {
      "bufferView": 2,
      "byteOffset": 147792,
      "componentType": 5126,
      "count": 11880,
      "max": [
        0.9990212321281433,
        0.9997592568397522,
        0.9999915361404419
      ],
      "min": [
        -0.9990443587303162,
        -0.9997592568397522,
        -0.9999983906745911
      ],
      "type": "VEC3"
    },
    {
      "bufferView": 1,
      "byteOffset": 1744,
      "componentType": 5126,
      "count": 11880,
      "max": [
        1.0,
        1.0
      ],
      "min": [
        0.0,
        -0.9722219705581665
      ],
      "type": "VEC2"
    },
    {
      "bufferView": 0,
      "byteOffset": 3852,
      "componentType": 5125,
      "count": 60918,
      "type": "SCALAR"
    },
    {
      "bufferView": 2,
      "byteOffset": 290352,
      "componentType": 5126,
      "count": 218,
      "max": [
        -85.445556640625,
        -5.100965976715088,
        2499.591552734375
      ],
      "min": [
        -1602.304443359375,
        -5.100965976715088,
        -6.0999998822808266e-05
      ],
      "type": "VEC3"
    },
    {
      "bufferView": 2,
      "byteOffset": 292968,
      "componentType": 5126,
      "count": 218,
      "max": [
        0.0,
        -1.0,
        0.0
      ],
      "min": [
        0.0,
        -1.0,
        0.0
      ],
      "type": "VEC3"
    },
    {
      "bufferView": 1,
      "byteOffset": 96784,
      "componentType": 5126,
      "count": 218,
      "max": [
        1.0,
        1.0
      ],
      "min": [
        0.0,
        0.0
      ],
      "type": "VEC2"
    },
    {
      "bufferView": 0,
      "byteOffset": 247524,
      "componentType": 5125,
      "count": 963,
      "type": "SCALAR"
    }
  ],
  "asset": {
    "extras": {
      "author": "VikaRamdina (https://sketchfab.com/VikaRamdina)",
      "license": "CC-BY-4.0 (http://creativecommons.org/licenses/by/4.0/)",
      "source": "https://sketchfab.com/3d-models/ice-cream-cup-05d18f90e66545db8a9778da0ad99547",
      "title": "Ice Cream Cup"
    },
    "generator": "Sketchfab-12.66.0",
    "version": "2.0"
  },
  "bufferViews": [
    {
      "buffer": 0,
      "byteLength": 251376,
      "name": "floatBufferViews",
      "target": 34963
    },
    {
      "buffer": 0,
      "byteLength": 98528,
      "byteOffset": 251376,
      "byteStride": 8,
      "name": "floatBufferViews",
      "target": 34962
    },
    {
      "buffer": 0,
      "byteLength": 295584,
      "byteOffset": 349904,
      "byteStride": 12,
      "name": "floatBufferViews",
      "target": 34962
    }
  ],
  "buffers": [
    {
      "byteLength": 645488,
      "uri": "scene.bin"
    }
  ],
  "materials": [
    {
      "doubleSided": true,
      "name": "Vector_Smart_Object_Back_Inflation_Material",
      "pbrMetallicRoughness": {
        "metallicFactor": 0.0,
        "roughnessFactor": 0.6
      }
    },
    {
      "doubleSided": true,
      "name": "Vector_Smart_Object_Extrusion_Material",
      "pbrMetallicRoughness": {
        "metallicFactor": 0.0,
        "roughnessFactor": 0.6
      }
    },
    {
      "doubleSided": true,
      "name": "Vector_Smart_Object_Front_Inflation_Material",
      "pbrMetallicRoughness": {
        "metallicFactor": 0.0,
        "roughnessFactor": 0.6
      }
    }
  ],
  "meshes": [
    {
      "name": "Object_0",
      "primitives": [
        {
          "attributes": {
            "NORMAL": 1,
            "POSITION": 0,
            "TEXCOORD_0": 2
          },
          "indices": 3,
          "material": 0,
          "mode": 4
        }
      ]
    },
    {
      "name": "Object_1",
      "primitives": [
        {
          "attributes": {
            "NORMAL": 5,
            "POSITION": 4,
            "TEXCOORD_0": 6
          },
          "indices": 7,
          "material": 1,
          "mode": 4
        }
      ]
    },
    {
      "name": "Object_2",
      "primitives": [
        {
          "attributes": {
            "NORMAL": 9,
            "POSITION": 8,
            "TEXCOORD_0": 10
          },
          "indices": 11,
          "material": 2,
          "mode": 4
        }
      ]
    }
  ],
  "nodes": [
    {
      "children": [
        1
      ],
      "matrix": [
        1.0,
        0.0,
        0.0,
        0.0,
        0.0,
        2.220446049250313e-16,
        -1.0,
        0.0,
        0.0,
        1.0,
        2.220446049250313e-16,
        0.0,
        0.0,
        0.0,
        0.0,
        1.0
      ],
      "name": "Sketchfab_model"
    },
    {
      "children": [
        2,
        3,
        4
      ],
      "name": "CUP ESKRIM.obj.cleaner.materialmerger.gles"
    },
    {
      "mesh": 0,
      "name": "Object_2"
    },
    {
      "mesh": 1,
      "name": "Object_3"
    },
    {
      "mesh": 2,
      "name": "Object_4"
    }
  ],
  "scene": 0,
  "scenes": [
    {
      "name": "Sketchfab_Scene",
      "nodes": [
        0
      ]
    }
  ]
}
